<svg width="15" height="17" viewBox="0 0 15 17" fill="none" xmlns="http://www.w3.org/2000/svg">
<path d="M7.3555 11.6283V10.9885L7.35548 10.9806C7.35524 10.9333 7.35495 10.8749 7.42696 10.9012C7.4765 10.9192 7.52646 10.936 7.57638 10.9527C7.75576 11.0128 7.93468 11.0728 8.09254 11.1903C8.37703 11.402 8.35321 11.973 7.99131 12.1953C7.82657 12.2965 7.6486 12.3653 7.4521 12.3779C7.37667 12.3825 7.35021 12.3614 7.35153 12.2826C7.3548 12.1286 7.35412 11.9748 7.35343 11.821C7.35314 11.7568 7.35286 11.6926 7.35286 11.6283H7.3555Z" fill="#55FE66"/>
<path d="M6.53091 9.30365C6.53102 9.24841 6.53113 9.19318 6.53113 9.138L6.52981 9.13734C6.52981 9.08265 6.52916 9.02796 6.52852 8.97328C6.527 8.84409 6.52548 8.71498 6.53246 8.58621C6.53973 8.46182 6.47026 8.45323 6.39286 8.48631C6.37781 8.4928 6.3627 8.49923 6.34759 8.50566C6.23181 8.55489 6.11538 8.60442 6.01706 8.6881C5.78814 8.88328 5.66376 9.24451 5.89202 9.48734C6.03889 9.64347 6.23473 9.72153 6.43454 9.79167C6.52319 9.82276 6.53246 9.79167 6.53179 9.71824C6.53038 9.58021 6.53064 9.44185 6.53091 9.30365Z" fill="#55FE66"/>
<path fill-rule="evenodd" clip-rule="evenodd" d="M7.34095 16.9523C6.63104 16.9331 5.98398 16.8947 5.33759 16.8405C4.90026 16.8034 4.46889 16.7379 4.04282 16.6479C3.34879 16.5011 2.67659 16.2741 2.05666 15.9228C1.51811 15.6171 1.04506 15.2255 0.690431 14.7121C0.420493 14.3211 0.236571 13.8903 0.120789 13.4232C-0.0128576 12.884 -0.0148444 12.3422 0.0169117 11.7983C0.0394042 11.4172 0.127404 11.0441 0.225321 10.6729C0.313312 10.3395 0.413216 10.012 0.538261 9.69242C0.66132 9.37683 0.803568 9.06918 0.951768 8.76418C1.14959 8.35728 1.37718 7.96893 1.62331 7.59049C1.87075 7.2094 2.1334 6.84021 2.41856 6.48624C2.44969 6.44753 2.4806 6.40866 2.51144 6.36977L2.55099 6.31987C2.67077 6.16862 2.79051 6.01745 2.91874 5.87228C3.17147 5.58713 3.44075 5.31851 3.71466 5.05519C3.94821 4.83089 4.19565 4.6205 4.45831 4.42798C4.73618 4.22486 5.01737 4.02969 5.32303 3.87025C5.46065 3.79813 5.46726 3.76505 5.34222 3.6744C4.94591 3.38727 4.62239 3.03198 4.34451 2.63236C4.03355 2.18511 3.77884 1.71207 3.64585 1.17814C3.58961 0.953199 3.53867 0.734202 3.58961 0.498003C3.66636 0.141401 4.03025 -0.0696486 4.39347 0.0209837C4.68091 0.0928467 4.94927 0.21005 5.2175 0.327205C5.36416 0.391266 5.51078 0.455311 5.66046 0.51191C6.06338 0.664068 6.47225 0.695178 6.90098 0.582691C7.09999 0.530195 7.29798 0.474371 7.49593 0.418564C7.77443 0.340062 8.05287 0.261577 8.33403 0.192347C8.65226 0.113619 8.97314 0.0639981 9.29866 0.0448088C9.5719 0.0282685 9.69033 0.140077 9.66916 0.410019C9.64269 0.754716 9.54941 1.0842 9.42502 1.40772C9.28609 1.7703 9.10017 2.10771 8.91029 2.44381C8.66219 2.88311 8.3552 3.27809 7.98007 3.61751C7.92052 3.6711 7.92184 3.69822 7.99197 3.72932C8.4948 3.94964 8.95329 4.24405 9.3893 4.57353C9.99599 5.03202 10.5531 5.54411 11.0572 6.11575C11.3463 6.44325 11.6229 6.78134 11.8836 7.12999C12.1747 7.51903 12.4406 7.92724 12.6914 8.34538C13.0328 8.91503 13.3166 9.51114 13.5475 10.1337C13.699 10.5413 13.8049 10.9601 13.9048 11.3835C14.0259 11.8956 14.0325 12.4096 14.0067 12.9237C13.9729 13.5781 13.7837 14.194 13.4079 14.7398C13.0394 15.2751 12.5617 15.6853 11.9901 15.9976C11.3973 16.3218 10.7648 16.5308 10.1104 16.6704C9.65592 16.7677 9.19213 16.8226 8.72768 16.8716C8.45752 16.9001 8.18716 16.9108 7.9277 16.921C7.72331 16.9291 7.5257 16.9369 7.34028 16.9529L7.34095 16.9523ZM6.52959 11.5994C6.5294 11.6385 6.5291 11.6775 6.52881 11.7166C6.52758 11.8786 6.52635 12.0404 6.53246 12.2019C6.53709 12.3309 6.49342 12.3362 6.38955 12.2959C6.04684 12.1622 5.83644 11.9134 5.72529 11.5694C5.63995 11.3061 5.44345 11.1969 5.196 11.269C4.9737 11.3339 4.85197 11.5654 4.91482 11.8076C5.00744 12.1622 5.19733 12.4579 5.4719 12.6975C5.73853 12.9303 6.0422 13.0977 6.39154 13.1698C6.50401 13.193 6.54106 13.2525 6.5318 13.363C6.52386 13.4596 6.52717 13.5569 6.5318 13.6541C6.54437 13.9228 6.72763 14.1246 6.96052 14.1034C7.21259 14.0802 7.36741 13.9525 7.36212 13.6224C7.3608 13.5515 7.36036 13.4807 7.35865 13.4099C7.35779 13.3742 7.35661 13.3385 7.35484 13.3028C7.3522 13.2466 7.37336 13.2228 7.42828 13.2214C7.77166 13.2162 8.0846 13.1103 8.37571 12.9323C8.68799 12.7418 8.92154 12.4884 9.0393 12.1338C9.13788 11.8374 9.15111 11.5469 9.07106 11.2406C8.99497 10.9475 8.8395 10.7159 8.6119 10.534C8.28374 10.272 7.88413 10.1582 7.48716 10.0543C7.38065 10.0265 7.35484 9.9875 7.35484 9.89288C7.35682 9.46663 7.35616 9.03971 7.3555 8.61346V8.61201C7.3555 8.45387 7.37932 8.43338 7.5262 8.48101C7.87751 8.59414 8.14613 8.78998 8.25662 9.16776C8.31418 9.36491 8.54706 9.45887 8.7687 9.40329C8.94072 9.3603 9.08495 9.13997 9.05253 8.95472C8.97843 8.52798 8.74356 8.20049 8.3896 7.96628C8.11371 7.78367 7.80606 7.66325 7.47459 7.62092C7.37535 7.60835 7.34028 7.56799 7.35153 7.46278C7.36224 7.36083 7.35663 7.25693 7.35105 7.15357L7.35103 7.15304C7.35006 7.13519 7.3491 7.11736 7.34822 7.09956C7.3383 6.90704 7.17224 6.74428 6.96978 6.73105C6.82489 6.72112 6.58936 6.83955 6.55628 7.04201C6.53246 7.19219 6.52717 7.34106 6.53511 7.48992C6.53974 7.5779 6.50599 7.62025 6.42859 7.6229C6.36341 7.62531 6.30457 7.64536 6.2454 7.66551L6.24521 7.66556C6.23265 7.66984 6.22008 7.67412 6.20743 7.67824C6.19806 7.6813 6.18864 7.68427 6.17916 7.68708C5.55129 7.8743 5.1014 8.24547 4.96378 8.90907C4.86718 9.37419 4.98628 9.79364 5.33825 10.1264C5.63399 10.4063 5.99986 10.5611 6.38955 10.6551C6.49938 10.6815 6.53246 10.7331 6.5318 10.8337C6.53038 10.9967 6.53065 11.1594 6.53092 11.3222C6.53103 11.3874 6.53114 11.4526 6.53114 11.5178H6.52981C6.52981 11.545 6.52973 11.5722 6.52959 11.5994Z" fill="#55FE66"/>
</svg>
