<svg width="52" height="53" viewBox="0 0 52 53" fill="none" xmlns="http://www.w3.org/2000/svg">
<g clip-path="url(#clip0_1_144)">
<path d="M50.8462 32.8188C47.4094 46.6026 33.447 54.9912 19.6599 51.554C5.87865 48.1176 -2.51089 34.1559 0.92739 20.3731C4.36265 6.58775 18.325 -1.80147 32.1078 1.63491C45.8939 5.07129 54.2829 19.0345 50.8458 32.819L50.846 32.8188H50.8462Z" fill="#F7931A"/>
<path d="M37.2334 22.9288C37.7456 19.5047 35.1385 17.6642 31.5734 16.4363L32.7299 11.7982L29.9062 11.0946L28.7804 15.6107C28.038 15.4256 27.2757 15.2511 26.518 15.0782L27.652 10.5324L24.8301 9.82883L23.6729 14.4655C23.0586 14.3257 22.4552 14.1874 21.8699 14.0418L21.8731 14.0272L17.9792 13.0549L17.228 16.0705C17.228 16.0705 19.323 16.5507 19.2788 16.5802C20.4223 16.8656 20.6291 17.6224 20.5947 18.2223L19.2773 23.5063C19.3561 23.5263 19.4582 23.5552 19.5709 23.6005C19.4767 23.5771 19.3764 23.5516 19.2724 23.5267L17.4259 30.9288C17.2861 31.2761 16.9314 31.7974 16.132 31.5995C16.1603 31.6405 14.0797 31.0874 14.0797 31.0874L12.6777 34.3193L16.3523 35.2352C17.036 35.4066 17.7058 35.586 18.3656 35.7546L17.1971 40.446L20.0175 41.1495L21.1747 36.5079C21.9452 36.7171 22.693 36.91 23.425 37.0919L22.2717 41.7115L25.0956 42.4151L26.2639 37.7325C31.079 38.6437 34.6995 38.2763 36.2234 33.9216C37.4514 30.4155 36.1623 28.3933 33.6291 27.0745C35.4742 26.649 36.8639 25.4357 37.2344 22.9292L37.2336 22.9285L37.2334 22.9288ZM30.7819 31.9745C29.9092 35.4806 24.0055 33.5853 22.0914 33.11L23.642 26.8948C25.5559 27.3725 31.6939 28.318 30.782 31.9745H30.7819ZM31.6552 22.878C30.8591 26.0671 25.9453 24.4469 24.3513 24.0496L25.7572 18.4127C27.3512 18.81 32.4844 19.5515 31.6554 22.878H31.6552Z" fill="white"/>
</g>
<defs>
<clipPath id="clip0_1_144">
<rect width="51.4593" height="51.4593" fill="white" transform="translate(0.156738 0.864975)"/>
</clipPath>
</defs>
</svg>
