<svg width="18" height="18" viewBox="0 0 18 18" fill="none" xmlns="http://www.w3.org/2000/svg">
<path d="M2.58892 6.39546C2.57524 2.87578 5.47304 -0.154772 9.32498 0.00612793C12.6934 0.146915 15.4279 2.88945 15.4392 6.41637C15.4504 10.0181 12.5438 12.8821 8.9348 12.8588C5.46661 12.8363 2.58248 10.0117 2.58892 6.39546ZM8.48187 7.73012C8.21638 7.73012 7.9509 7.73173 7.68622 7.73012C7.34109 7.72771 7.0571 8.10099 7.08285 8.40831C7.11181 8.75586 7.33063 8.99882 7.68702 9.00606C7.8262 9.00927 7.96538 9.01651 8.10456 9.01088C8.31212 9.00284 8.40222 9.08248 8.36683 9.2997C8.34832 9.40911 8.36361 9.52496 8.36361 9.63759C8.36522 9.99639 8.64357 10.278 8.99755 10.2812C9.37245 10.2844 9.6323 10.031 9.63793 9.65448C9.64035 9.46864 9.63954 9.2828 9.63793 9.09696C9.63793 9.02456 9.65402 8.98997 9.73689 8.95859C10.4947 8.67782 10.872 8.17662 10.9074 7.41315C10.9509 6.47269 10.1383 5.81059 9.32981 5.7768C9.13754 5.76875 8.94446 5.78323 8.75299 5.77358C8.49876 5.76071 8.35154 5.62073 8.36361 5.42201C8.37487 5.24502 8.52612 5.13963 8.77068 5.13963C9.1488 5.13963 9.52691 5.14285 9.90503 5.13803C10.0885 5.13642 10.2727 5.15733 10.4553 5.10182C10.7264 5.01976 10.9436 4.72371 10.9115 4.45822C10.8704 4.12275 10.609 3.86692 10.3024 3.8645C10.1303 3.8629 9.95732 3.86048 9.78516 3.86772C9.67655 3.87255 9.62989 3.84198 9.63552 3.72452C9.64437 3.55236 9.63793 3.37939 9.63793 3.20723C9.63633 2.84601 9.35475 2.55478 9.01043 2.54915C8.69989 2.54432 8.30408 2.88623 8.35878 3.20562C8.38613 3.36652 8.35878 3.53707 8.36522 3.702C8.37004 3.82267 8.34028 3.87416 8.20673 3.91921C7.43683 4.17504 6.97102 4.88059 7.09894 5.71244C7.23329 6.58612 8.00561 7.0833 8.68863 7.05434C8.8986 7.04549 9.1134 7.01975 9.32096 7.07445C9.53898 7.13157 9.62023 7.25466 9.59851 7.46303C9.58162 7.62473 9.44807 7.7261 9.23971 7.72851C8.9879 7.73093 8.73529 7.72851 8.48348 7.72932L8.48187 7.73012Z" fill="#55FE66"/>
<path d="M8.97499 18.0069C6.64596 18.0069 4.31775 18.0093 1.98872 18.0061C1.06677 18.0044 0.316973 17.4365 0.0651644 16.5636C0.0233305 16.418 0 16.2708 0 16.1171C0.003218 15.2144 -0.003218 14.3118 0.003218 13.4092C0.00643599 12.9417 0.187448 12.5499 0.51327 12.2064C0.795649 11.9088 1.11584 11.6915 1.51326 11.6063C1.8246 11.5395 2.14479 11.5475 2.46257 11.554C2.53578 11.5556 2.60819 11.554 2.68139 11.554C3.30569 11.554 3.29684 11.5612 3.71115 12.0423C3.86964 12.2257 4.06835 12.3778 4.26304 12.5258C5.29119 13.3054 6.44162 13.7969 7.71434 14.0326C8.47298 14.1726 9.23243 14.1951 9.98142 14.0914C11.3933 13.8943 12.6805 13.3641 13.8044 12.4655C14.1045 12.2257 14.3804 11.9619 14.6499 11.6907C14.7449 11.595 14.8398 11.5475 14.979 11.5516C15.4552 11.5652 15.9339 11.5226 16.4069 11.5958C16.7633 11.6513 17.0859 11.7857 17.3474 12.0504C17.6612 12.3673 17.8904 12.7269 17.9805 13.1702C17.9958 13.2434 17.9974 13.3142 17.9974 13.3866C17.9974 14.2893 17.9781 15.1919 18.0031 16.0938C18.0232 16.8154 17.4616 17.706 16.6041 17.924C16.3812 17.9811 16.1511 18.0069 15.9202 18.0069C13.6049 18.0069 11.2895 18.0069 8.97418 18.0069H8.97499ZM8.99591 16.0551C9.43999 16.0551 9.88488 16.0551 10.329 16.0551C11.6097 16.0551 12.8897 16.0568 14.1704 16.0551C14.5783 16.0551 14.8567 15.7124 14.777 15.3174C14.707 14.9683 14.4576 14.7808 14.0578 14.7808C10.6942 14.7808 7.33059 14.7808 3.96779 14.7808C3.92837 14.7808 3.88814 14.7776 3.84872 14.7816C3.52934 14.8154 3.19627 15.0399 3.22041 15.4807C3.23489 15.7543 3.56393 16.0664 3.88171 16.0632C5.58644 16.0455 7.29117 16.0551 8.99671 16.0551H8.99591Z" fill="#55FE66"/>
</svg>
