<svg width="52" height="53" viewBox="0 0 52 53" fill="none" xmlns="http://www.w3.org/2000/svg">
<circle cx="25.8892" cy="26.5946" r="25.7297" fill="white"/>
<g clip-path="url(#clip0_1_183)">
<path d="M25.8856 7.2973L25.6045 8.17682V33.6961L25.8856 33.9544L38.7464 26.9524L25.8856 7.2973Z" fill="#343434"/>
<path d="M25.8852 7.2973L13.0242 26.9524L25.8852 33.9544V21.5681V7.2973Z" fill="#8C8C8C"/>
<path d="M25.8852 36.1972L25.7268 36.3751V45.4655L25.8852 45.8915L38.7539 29.1988L25.8852 36.1972Z" fill="#3C3C3B"/>
<path d="M25.8852 45.8915V36.1972L13.0242 29.1988L25.8852 45.8915Z" fill="#8C8C8C"/>
<path d="M25.8855 33.9544L38.7462 26.9524L25.8855 21.5681V33.9544Z" fill="#141414"/>
<path d="M13.0242 26.9524L25.8852 33.9544V21.5681L13.0242 26.9524Z" fill="#393939"/>
</g>
<defs>
<clipPath id="clip0_1_183">
<rect width="25.7297" height="38.5945" fill="white" transform="translate(13.0242 7.2973)"/>
</clipPath>
</defs>
</svg>
