<svg width="19" height="18" viewBox="0 0 19 18" fill="none" xmlns="http://www.w3.org/2000/svg">
<path d="M15.344 9.98748C15.344 11.7642 15.3448 13.54 15.3431 15.3167C15.3431 15.7054 15.276 16.0786 15.0516 16.4089C14.7257 16.8887 14.2862 17.1699 13.7006 17.2293C13.4452 17.2551 13.1915 17.2551 12.9369 17.2551C10.7388 17.2568 8.5399 17.2551 6.34182 17.2568C5.91269 17.2568 5.49819 17.1854 5.15162 16.9249C4.72679 16.6058 4.44902 16.1887 4.39571 15.634C4.35013 15.1662 4.36991 14.6984 4.36991 14.2314C4.36561 11.022 4.36905 7.81261 4.36475 4.6032C4.36475 4.44927 4.39828 4.40283 4.55824 4.40283C8.07552 4.40799 11.5928 4.40627 15.1109 4.40799C15.3775 4.40799 15.3448 4.37359 15.3448 4.6419C15.3457 6.42376 15.3448 8.20562 15.3448 9.98748H15.344ZM8.95355 9.47923C8.97762 9.49557 9.00084 9.51277 9.02492 9.52911C9.02492 9.58759 9.02492 9.64521 9.02492 9.70369C9.02492 10.8698 9.0232 12.0351 9.02578 13.2012C9.02664 13.5856 9.17714 13.8401 9.55896 13.9339C9.96143 14.0328 10.4946 13.7731 10.492 13.2433C10.4869 12.023 10.4903 10.8027 10.492 9.58243C10.492 9.52567 10.4731 9.46461 10.5084 9.41302C10.5548 9.40356 10.5703 9.43968 10.5883 9.46203C10.7655 9.68133 10.9822 9.85934 11.1834 10.0537C11.4027 10.2661 11.8396 10.2627 12.0718 10.0778C12.3917 9.82236 12.4502 9.29606 12.1071 8.95637C11.7063 8.55907 11.3116 8.15488 10.9031 7.76531C10.5772 7.45401 10.173 7.30695 9.72666 7.33275C9.26227 7.35855 8.87959 7.57182 8.55882 7.91495C8.21741 8.27958 7.85966 8.62958 7.50192 8.97873C7.29896 9.17652 7.21211 9.50761 7.3153 9.76388C7.5088 10.2455 8.10647 10.3779 8.48228 10.0133C8.6517 9.84816 8.79703 9.65811 8.95355 9.48009V9.47923Z" fill="#55FE66"/>
<path d="M2.9992 7.79042C2.60534 7.6382 2.26307 7.43267 1.96036 7.16608C1.47448 6.73953 1.09351 6.22269 0.904318 5.60695C0.724585 5.02475 0.658367 4.42191 0.771883 3.79844C0.887979 3.1612 1.13651 2.60308 1.53726 2.10602C2.04292 1.47824 2.6965 1.07061 3.46617 0.8539C3.77748 0.765323 4.10427 0.746403 4.42847 0.746403C8.06013 0.745543 11.6918 0.737804 15.3234 0.749843C16.6426 0.754143 17.6694 1.34236 18.409 2.43796C18.8811 3.13712 19.0591 3.92055 18.9835 4.7444C18.9095 5.54934 18.618 6.27773 18.053 6.88659C17.6789 7.28991 17.2351 7.56854 16.7217 7.79386C16.7183 7.71904 16.7131 7.65798 16.7131 7.59606C16.7131 6.5555 16.714 5.51494 16.7123 4.47351C16.7123 4.231 16.6925 3.98763 16.6125 3.7563C16.4956 3.42005 16.1954 3.29363 15.9048 3.16808C15.682 3.07176 15.4455 3.03134 15.1979 3.0322C11.5611 3.0365 7.92339 3.03478 4.28658 3.03564C4.04149 3.03564 3.805 3.08724 3.58914 3.2042C3.31137 3.35383 3.21248 3.63762 3.09896 3.90421C3.00264 4.13124 2.99662 4.37634 2.99748 4.62143C3.00006 5.62415 2.99834 6.62688 2.9992 7.6296C2.9992 7.67776 2.9992 7.72592 2.9992 7.79128V7.79042Z" fill="#55FE66"/>
</svg>
