<svg width="18" height="16" viewBox="0 0 18 16" fill="none" xmlns="http://www.w3.org/2000/svg">
<path d="M17.1555 4.34046C16.5718 4.33645 15.9872 4.33083 15.4035 4.33002C15.1297 4.33002 14.8559 4.33002 14.5829 4.34528C13.8988 4.38382 13.2854 4.60784 12.757 5.05266C12.3387 5.40514 12.0529 5.84434 11.8505 6.34698C11.7333 6.63764 11.69 6.93632 11.6867 7.24465C11.6843 7.50239 11.6635 7.76173 11.6811 8.01867C11.6956 8.22342 11.7357 8.43218 11.8016 8.62729C11.9573 9.09138 12.2046 9.5081 12.5483 9.85898C12.7755 10.0902 13.0349 10.2861 13.3239 10.4395C13.3376 10.4459 13.3512 10.4515 13.3649 10.458C13.4106 10.4812 13.4572 10.5037 13.503 10.527C13.5166 10.5318 13.5303 10.5366 13.5439 10.5415C13.8233 10.6531 14.1092 10.7358 14.4127 10.7438C14.6953 10.751 14.9779 10.7583 15.2606 10.7599C15.8387 10.7623 16.4176 10.7599 16.9957 10.7607C17.0358 10.7607 17.076 10.7639 17.1153 10.7655C17.1137 10.8345 17.1627 10.8402 17.2133 10.8434C17.2133 11.2432 17.2293 11.6431 17.2109 12.0421C17.1916 12.4436 17.0969 12.8322 16.8745 13.1775C16.6384 13.5436 16.3301 13.8327 15.9334 14.0238C15.6468 14.1619 15.3409 14.2245 15.0269 14.2566C15.0036 14.255 14.9803 14.2526 14.9579 14.2526C12.8654 14.2518 10.773 14.2502 8.68059 14.2502C8.48066 14.2502 8.28153 14.2614 8.08161 14.267C8.04146 14.267 8.00131 14.267 7.96117 14.267C7.92744 14.267 7.89372 14.267 7.86 14.2662C7.84876 14.2446 7.82788 14.2229 7.82788 14.2012C7.82788 12.8017 7.83029 11.4022 7.8327 10.0027C7.82949 9.98343 7.82708 9.96416 7.82387 9.94489C7.75803 9.62934 7.65043 9.33547 7.41357 9.10101C7.12693 8.81678 6.81057 8.58072 6.42517 8.44261C6.27582 8.38882 6.13371 8.31013 5.98195 8.26597C5.73786 8.19531 5.48815 8.14152 5.23925 8.08531C5.06983 8.04677 4.8988 8.01385 4.72698 7.98495C4.64669 7.9713 4.56398 7.96969 4.48209 7.96487C4.238 7.95042 3.99471 7.93597 3.75062 7.92553C3.52179 7.91589 3.29215 7.89823 3.06331 7.90787C2.80156 7.91911 2.54061 7.95122 2.28046 7.98575C1.99141 8.02429 1.70396 8.07728 1.41571 8.12305C1.40286 8.12546 1.38921 8.12144 1.37556 8.12064C1.36111 8.08852 1.34746 8.0556 1.33301 8.02349C1.33461 7.19728 1.33702 6.37106 1.33863 5.54405C1.34023 4.71784 1.34104 3.89082 1.34184 3.06461C1.41491 3.01483 1.41892 2.95943 1.35308 2.90403C1.36914 2.80446 1.3852 2.7049 1.40045 2.60454C1.40527 2.59089 1.40929 2.57724 1.4141 2.56439C1.44943 2.36285 1.52892 2.17818 1.63732 2.00555C1.65016 1.98468 1.66301 1.9646 1.67586 1.94373C1.72724 1.86343 1.7698 1.77511 1.83323 1.70526C1.94082 1.58562 2.06207 1.47723 2.17688 1.36482C2.25075 1.36963 2.30776 1.34956 2.3182 1.26525L2.33586 1.24438C2.34309 1.23956 2.35032 1.23474 2.35754 1.22993C2.38966 1.20825 2.42258 1.18737 2.4547 1.16569C2.46192 1.16087 2.46995 1.15686 2.47718 1.15204C2.74937 1.01073 3.0328 0.901528 3.34113 0.868608C3.39733 0.925616 3.44551 0.929631 3.48164 0.848535C3.52821 0.848535 3.57558 0.849338 3.62215 0.850141C3.66471 0.947295 3.70405 0.907149 3.74259 0.846929C3.78916 0.845323 3.83573 0.841309 3.8823 0.841309C7.46897 0.841309 11.0556 0.841309 14.6423 0.841309C14.6825 0.841309 14.7226 0.84452 14.762 0.846126C14.8278 0.911966 14.888 0.912769 14.9426 0.848535L15.0831 0.868608C15.1096 0.920798 15.1369 0.920798 15.1634 0.868608C15.7383 0.928828 16.2265 1.1673 16.6087 1.59927C16.9066 1.9357 17.1033 2.32672 17.1699 2.77476C17.1884 2.8976 17.1948 3.02125 17.2077 3.1449C17.1547 3.17301 17.1555 3.1995 17.2093 3.2252C17.2093 3.57849 17.2093 3.93177 17.2093 4.28506C17.19 4.30433 17.1699 4.3228 17.1507 4.34207L17.1555 4.34046ZM6.11283 4.40389C6.67809 4.4047 7.24335 4.41433 7.80861 4.40229C8.25022 4.39265 8.46059 3.95345 8.29037 3.58491C8.1884 3.3641 7.99569 3.26695 7.76284 3.26374C7.26423 3.25731 6.76561 3.26133 6.26779 3.26133C5.68567 3.26133 5.10355 3.26133 4.52143 3.26133C4.35041 3.26133 4.19705 3.30067 4.07018 3.42513C3.89675 3.59535 3.84055 3.82418 3.91683 4.02009C4.00836 4.25535 4.21792 4.41192 4.46763 4.40711C5.01603 4.39747 5.56443 4.40389 6.11363 4.40389H6.11283Z" fill="#55FE66"/>
<path d="M13.5823 5.62832C13.8256 5.46693 14.093 5.36817 14.3812 5.32642C14.4824 5.31196 14.5844 5.30394 14.6863 5.30394C15.576 5.30153 16.4656 5.29912 17.3553 5.30233C17.6178 5.30313 17.8338 5.4027 17.9334 5.66204C17.9727 5.76321 17.9952 5.87803 17.996 5.98642C18.0008 7.03264 18.0008 8.07885 17.9976 9.12506C17.9968 9.44864 17.8611 9.67346 17.56 9.76821C17.4893 9.79069 17.4107 9.79792 17.336 9.79792C16.4295 9.79792 15.523 9.80354 14.6165 9.79229C14.2126 9.78748 13.8441 9.64054 13.5125 9.41331C13.0548 9.09937 12.7995 8.64973 12.683 8.119C12.6276 7.86607 12.6509 7.60432 12.6477 7.34578C12.6445 7.12417 12.6814 6.91139 12.7441 6.70103C12.7497 6.6946 12.7553 6.68738 12.7609 6.68095C12.7762 6.63438 12.7906 6.58781 12.8059 6.54044C12.8107 6.53402 12.8163 6.5284 12.8211 6.52198C12.9753 6.15102 13.2387 5.8708 13.5614 5.64036L13.5831 5.62591L13.5823 5.62832Z" fill="#55FE66"/>
<path d="M3.38608 8.86157C3.582 8.8688 3.77872 8.8696 3.97383 8.88566C4.19142 8.90413 4.40741 8.93624 4.6242 8.96274C4.7888 8.98281 4.955 8.99646 5.118 9.02778C5.24084 9.05187 5.35647 9.11128 5.47851 9.13457C5.77238 9.19077 6.04538 9.30559 6.2975 9.45172C6.56728 9.60829 6.81859 9.80581 6.85473 10.1535C6.87079 10.306 6.80816 10.4482 6.70458 10.559C6.59056 10.681 6.47253 10.8079 6.33363 10.897C6.18348 10.9933 6.01165 11.0656 5.84063 11.1186C5.52026 11.2182 5.19588 11.3073 4.86829 11.3787C4.6523 11.4261 4.42909 11.4478 4.20748 11.4606C3.81726 11.4831 3.42543 11.4976 3.0344 11.5C2.85535 11.5008 2.67549 11.4663 2.49644 11.4438C2.29892 11.4189 2.1006 11.3996 1.90629 11.3595C1.68629 11.3137 1.4687 11.2511 1.25271 11.1885C1.08008 11.1387 0.905844 11.0889 0.741244 11.0182C0.623213 10.9668 0.517227 10.8841 0.410438 10.8087C0.325328 10.7484 0.226568 10.6914 0.171969 10.6087C0.100508 10.5003 0.00496009 10.4048 0.00736887 10.2458C0.0105806 9.98005 0.130217 9.8026 0.326131 9.63881C0.693068 9.33128 1.13227 9.19479 1.58271 9.08719C1.90228 9.01092 2.22826 8.96033 2.55265 8.90573C2.65622 8.88807 2.76301 8.89128 2.8682 8.88566C3.01353 8.87763 3.15886 8.8704 3.30419 8.86318C3.33149 8.86318 3.35798 8.86238 3.38528 8.86157H3.38608Z" fill="#55FE66"/>
<path d="M0.0128201 11.7081C0.0706308 11.7386 0.11158 11.7651 0.155741 11.7828C0.308297 11.8454 0.461656 11.9056 0.615818 11.9659C0.806112 12.0397 0.992391 12.1289 1.1883 12.1819C1.44203 12.2509 1.70298 12.2967 1.96313 12.3416C2.2024 12.3826 2.44328 12.4259 2.68576 12.4388C3.03423 12.4573 3.38431 12.4516 3.73358 12.45C3.88533 12.45 4.03789 12.4364 4.18884 12.4219C4.4233 12.3994 4.65695 12.3673 4.8914 12.344C5.25272 12.3087 5.59798 12.2124 5.94243 12.104C6.23791 12.0108 6.51813 11.8864 6.7839 11.729C6.80237 11.7186 6.82164 11.7097 6.85536 11.6929C6.85536 11.9667 6.87784 12.2268 6.84974 12.4813C6.81762 12.772 6.59682 12.9503 6.36397 13.0916C6.17046 13.2088 5.96491 13.318 5.75053 13.3878C5.44542 13.4866 5.12907 13.5605 4.81272 13.6175C4.51081 13.6713 4.20249 13.697 3.89577 13.7203C3.67176 13.7371 3.44533 13.7323 3.22051 13.7331C3.06234 13.7331 2.90336 13.7347 2.74678 13.7211C2.57496 13.7058 2.40474 13.6745 2.23452 13.648C2.05868 13.6207 1.88284 13.5958 1.7086 13.5613C1.58575 13.5364 1.4621 13.5059 1.34488 13.4625C1.08714 13.3678 0.826988 13.2762 0.580489 13.1574C0.449612 13.0948 0.338808 12.9848 0.228807 12.8852C0.0866893 12.7551 -0.00645017 12.605 0.00960836 12.3938C0.0272727 12.173 0.013623 11.9506 0.013623 11.7089L0.0128201 11.7081Z" fill="#55FE66"/>
<path d="M0.0353288 14.8419C0.0232849 14.5456 0.0120439 14.2494 0 13.9555C0.276207 14.0735 0.53234 14.1948 0.798109 14.2919C1.01329 14.3706 1.23892 14.422 1.46052 14.4822C1.55687 14.5087 1.65483 14.5336 1.75359 14.5489C1.97921 14.5834 2.20564 14.6147 2.43287 14.642C2.63199 14.6661 2.83192 14.6934 3.03185 14.6998C3.25828 14.707 3.4855 14.6934 3.71193 14.6894C3.79543 14.6878 3.87894 14.6862 3.96164 14.6829C4.33902 14.6669 4.71398 14.6299 5.08253 14.5456C5.37238 14.479 5.66866 14.4316 5.94808 14.3361C6.23553 14.2381 6.50611 14.0912 6.78473 13.9659C6.804 13.9571 6.82327 13.9483 6.87305 13.9258C6.8602 14.2293 6.86823 14.5111 6.8313 14.7881C6.80561 14.9816 6.65305 15.1213 6.49889 15.2346C6.35998 15.3373 6.21385 15.4409 6.05487 15.5019C5.76501 15.6119 5.46632 15.6986 5.16603 15.7781C4.95968 15.8327 4.7469 15.8665 4.53573 15.8978C4.34142 15.9267 4.14551 15.9484 3.9504 15.9604C3.71514 15.9748 3.47747 15.9925 3.24302 15.9781C2.9628 15.9612 2.68177 15.9508 2.40075 15.909C1.98724 15.8488 1.58337 15.7589 1.18351 15.6424C0.99322 15.587 0.820591 15.4931 0.647962 15.4016C0.505844 15.3269 0.358908 15.2546 0.235257 15.1559C0.160585 15.0964 0.125257 14.9881 0.0714605 14.9021C0.0594166 14.8821 0.0473727 14.8612 0.0353288 14.8411V14.8419Z" fill="#55FE66"/>
</svg>
